<mxfile host="app.diagrams.net" modified="2024-07-10T20:10:45.028Z" agent="Mozilla/5.0 (Windows NT 10.0; Win64; x64) AppleWebKit/537.36 (KHTML, like Gecko) Chrome/126.0.0.0 Safari/537.36 Edg/126.0.0.0" etag="mYn0CsZ9vkv3oZ6SItDq" version="24.6.4" type="device">
  <diagram name="Page-1" id="EmMsQqXc0LIRInQNHdC-">
    <mxGraphModel dx="1042" dy="543" grid="1" gridSize="10" guides="1" tooltips="1" connect="1" arrows="1" fold="1" page="1" pageScale="1" pageWidth="827" pageHeight="1169" math="0" shadow="0">
      <root>
        <mxCell id="0" />
        <mxCell id="1" parent="0" />
        <mxCell id="UgYypbcrwgk6S1ACok5I-2" value="Spieler" style="swimlane;fontStyle=1;align=center;verticalAlign=top;childLayout=stackLayout;horizontal=1;startSize=26;horizontalStack=0;resizeParent=1;resizeParentMax=0;resizeLast=0;collapsible=1;marginBottom=0;whiteSpace=wrap;html=1;" parent="1" vertex="1">
          <mxGeometry x="70" y="80" width="160" height="258" as="geometry" />
        </mxCell>
        <mxCell id="UgYypbcrwgk6S1ACok5I-3" value="&lt;div&gt;+ id: int&lt;br&gt;&lt;/div&gt;+ name: String&lt;div&gt;+ vorname: String&lt;br&gt;&lt;/div&gt;&lt;div&gt;+ alter:&amp;nbsp;&lt;br&gt;&lt;/div&gt;" style="text;strokeColor=none;fillColor=none;align=left;verticalAlign=top;spacingLeft=4;spacingRight=4;overflow=hidden;rotatable=0;points=[[0,0.5],[1,0.5]];portConstraint=eastwest;whiteSpace=wrap;html=1;" parent="UgYypbcrwgk6S1ACok5I-2" vertex="1">
          <mxGeometry y="26" width="160" height="114" as="geometry" />
        </mxCell>
        <mxCell id="UgYypbcrwgk6S1ACok5I-4" value="" style="line;strokeWidth=1;fillColor=none;align=left;verticalAlign=middle;spacingTop=-1;spacingLeft=3;spacingRight=3;rotatable=0;labelPosition=right;points=[];portConstraint=eastwest;strokeColor=inherit;" parent="UgYypbcrwgk6S1ACok5I-2" vertex="1">
          <mxGeometry y="140" width="160" height="8" as="geometry" />
        </mxCell>
        <mxCell id="UgYypbcrwgk6S1ACok5I-5" value="&lt;div&gt;&amp;lt;&amp;lt; constructor &amp;gt;&amp;gt;&lt;/div&gt;+ method(type): type&lt;div&gt;&amp;lt;&amp;lt; method &amp;gt;&amp;gt;&lt;br&gt;&lt;div&gt;+ method(type): type&lt;br&gt;&lt;/div&gt;&lt;div&gt;+ method(type): type&lt;br&gt;&lt;/div&gt;&lt;div&gt;+ method(type): type&lt;br&gt;&lt;/div&gt;&lt;div&gt;&lt;br&gt;&lt;/div&gt;&lt;/div&gt;" style="text;strokeColor=none;fillColor=none;align=left;verticalAlign=top;spacingLeft=4;spacingRight=4;overflow=hidden;rotatable=0;points=[[0,0.5],[1,0.5]];portConstraint=eastwest;whiteSpace=wrap;html=1;fontStyle=0" parent="UgYypbcrwgk6S1ACok5I-2" vertex="1">
          <mxGeometry y="148" width="160" height="110" as="geometry" />
        </mxCell>
      </root>
    </mxGraphModel>
  </diagram>
</mxfile>
